<?xml version="1.0" encoding="UTF-8"?>
<svg width="68px" height="73px" viewBox="0 0 68 73" version="1.1" xmlns="http://www.w3.org/2000/svg" xmlns:xlink="http://www.w3.org/1999/xlink">
    <!-- Generator: Sketch 51.2 (57519) - http://www.bohemiancoding.com/sketch -->
    <title>icon-calendar</title>
    <desc>Created with Sketch.</desc>
    <defs></defs>
    <g id="installments" stroke="none" stroke-width="1" fill="none" fill-rule="evenodd">
        <g id="about-module" transform="translate(-786.000000, -289.000000)">
            <g id="AFFIRM-MODULE" transform="translate(180.000000, 193.000000)">
                <g id="icon-calendar" transform="translate(606.000000, 96.000000)">
                    <g id="icon_calendar_stroke" transform="translate(0.000000, 8.000000)" stroke="#02B3E4" stroke-width="2">
                        <path d="M59.341056,8.09090909 L8.03448276,56.7515723 L8.03448276,61.4451928 C8.03448276,62.8353787 9.30662533,64 10.9176158,64 L64.1168669,64 C65.7265329,64 67,62.8414345 67,61.4646993 L67,10.6262098 C67,9.24637602 65.7263842,8.09090909 64.1061364,8.09090909 L59.341056,8.09090909 Z" id="Rectangle-1257-Copy" fill="#F5FCFE"></path>
                        <rect id="Rectangle-1257" fill="#F5FCFE" x="1" y="1" width="58.9655172" height="55.9090909" rx="3"></rect>
                        <path d="M1,16.7272727 L59.9655172,16.7272727 L59.9655172,3.00719017 C59.9655172,1.89866931 59.0683772,1 57.9630225,1 L3.00249474,1 C1.89698247,1 1,1.89835611 1,3.00719017 L1,16.7272727 Z" id="Rectangle-1257-Copy-2" fill="#A4E4F5"></path>
                        <path d="M39.862069,26 L28.137931,40.1818182 L21.1034483,35.4545455" id="Line" stroke-linejoin="round"></path>
                    </g>
                    <g id="loops" transform="translate(11.000000, 0.000000)">
                        <ellipse id="Oval-3" fill="#02B3E4" cx="4.64864865" cy="13.7142857" rx="2.32432432" ry="2.28571429"></ellipse>
                        <ellipse id="Oval-3-Copy" fill="#02B3E4" cx="13.9459459" cy="13.7142857" rx="2.32432432" ry="2.28571429"></ellipse>
                        <ellipse id="Oval-3-Copy-2" fill="#02B3E4" cx="23.2432432" cy="13.7142857" rx="2.32432432" ry="2.28571429"></ellipse>
                        <path d="M11.6216216,8 C11.6216216,4.21290457 9.54035073,1.14285714 6.97297297,1.14285714 C4.40559522,1.14285714 2.32432432,4.21290457 2.32432432,8 C2.32432432,11.7870954 4.40559522,14.8571429 6.97297297,14.8571429 L6.97297297,14.8571429" id="Oval-7" stroke="#02B3E4" stroke-width="2" transform="translate(6.972973, 8.000000) rotate(17.000000) translate(-6.972973, -8.000000) "></path>
                        <path d="M22.0810811,8 C22.0810811,4.21290457 19.9998102,1.14285714 17.4324324,1.14285714 C14.8650547,1.14285714 12.7837838,4.21290457 12.7837838,8 C12.7837838,11.7870954 14.8650547,14.8571429 17.4324324,14.8571429 L17.4324324,14.8571429" id="Oval-7-Copy" stroke="#02B3E4" stroke-width="2" transform="translate(17.432432, 8.000000) rotate(17.000000) translate(-17.432432, -8.000000) "></path>
                        <path d="M31.3783784,8 C31.3783784,4.21290457 29.2971075,1.14285714 26.7297297,1.14285714 C24.162352,1.14285714 22.0810811,4.21290457 22.0810811,8 C22.0810811,11.7870954 24.162352,14.8571429 26.7297297,14.8571429 L26.7297297,14.8571429" id="Oval-7-Copy-2" stroke="#02B3E4" stroke-width="2" transform="translate(26.729730, 8.000000) rotate(17.000000) translate(-26.729730, -8.000000) "></path>
                        <path d="M40.6756757,8 C40.6756757,4.21290457 38.5944048,1.14285714 36.027027,1.14285714 C33.4596493,1.14285714 31.3783784,4.21290457 31.3783784,8 C31.3783784,11.7870954 33.4596493,14.8571429 36.027027,14.8571429 L36.027027,14.8571429" id="Oval-7-Copy-3" stroke="#02B3E4" stroke-width="2" transform="translate(36.027027, 8.000000) rotate(17.000000) translate(-36.027027, -8.000000) "></path>
                        <path d="M32.5405405,16 C33.8242294,16 34.8648649,14.9766509 34.8648649,13.7142857 C34.8648649,12.4519206 33.8242294,11.4285714 32.5405405,11.4285714 C31.2568517,11.4285714 30.2162162,12.4519206 30.2162162,13.7142857 C30.2162162,14.9766509 31.2568517,16 32.5405405,16 Z" id="Oval-3-Copy-3" fill="#02B3E4"></path>
                    </g>
                </g>
            </g>
        </g>
    </g>
</svg>