<?xml version="1.0" encoding="UTF-8"?>
<svg width="98px" height="100px" viewBox="0 0 98 100" version="1.1" xmlns="http://www.w3.org/2000/svg" xmlns:xlink="http://www.w3.org/1999/xlink">
    <!-- Generator: Sketch 50.2 (55047) - http://www.bohemiancoding.com/sketch -->
    <title>icon-features-04</title>
    <desc>Created with Sketch.</desc>
    <defs>
        <circle id="path-1" cx="31" cy="31" r="31"></circle>
        <filter x="-40.3%" y="-38.7%" width="206.5%" height="206.5%" filterUnits="objectBoundingBox" id="filter-2">
            <feOffset dx="8" dy="9" in="SourceAlpha" result="shadowOffsetOuter1"></feOffset>
            <feGaussianBlur stdDeviation="9.5" in="shadowOffsetOuter1" result="shadowBlurOuter1"></feGaussianBlur>
            <feColorMatrix values="0 0 0 0 0.180392157   0 0 0 0 0.239215686   0 0 0 0 0.28627451  0 0 0 0.12 0" type="matrix" in="shadowBlurOuter1"></feColorMatrix>
        </filter>
    </defs>
    <g id="icon-features-04" stroke="none" stroke-width="1" fill="none" fill-rule="evenodd">
        <g id="selling-pts-purple" transform="translate(10.000000, 10.000000)">
            <g id="Oval-3">
                <use fill="black" fill-opacity="1" filter="url(#filter-2)" xlink:href="#path-1"></use>
                <use fill="#A951ED" fill-rule="evenodd" xlink:href="#path-1"></use>
            </g>
            <g id="icon/careers" transform="translate(13.000000, 13.000000)" fill-rule="evenodd" stroke-width="1">
                <g id="career" transform="translate(8.000000, 5.000000)">
                    <path d="M18.9734397,23 C18.7668051,19.047369 17.37507,14.8069823 15.5220387,12.5485292 C14.1017933,14.0134874 12.1450825,14.8722859 10.0462963,14.8722859 C7.92053508,14.8722859 5.94111736,13.9911924 4.51734649,12.4931484 C2.54824297,14.7958029 1.13405802,19.000763 1.0090146,23.0000039 L6.44444444,23 L18.9734397,23 Z" id="Combined-Shape" stroke="#FFFFFF" stroke-width="2"></path>
                    <circle id="Oval-3-Copy-3" stroke="#FFFFFF" stroke-width="2" cx="10" cy="6" r="5"></circle>
                    <path d="M8.31250001,15 L9.43750001,17.8235295 L8,23.8388749 L9.99999988,27 L12,23.8388749 L10.5624999,17.8235295 C10.5624999,17.8235295 11.3541665,16.370844 11.6874999,15" id="Path-3" fill="#FFFFFF"></path>
                </g>
            </g>
        </g>
    </g>
</svg>