<?xml version="1.0" encoding="UTF-8"?>
<svg width="89px" height="26px" viewBox="0 0 89 26" version="1.1" xmlns="http://www.w3.org/2000/svg"
>
  <!-- Generator: Sketch 51.1 (57501) - http://www.bohemiancoding.com/sketch -->
  <title>color/logo-color-affirm</title>
  <desc>Created with Sketch.</desc>
  <defs></defs>
  <g id="installments" stroke="none" stroke-width="1" fill="none" fill-rule="evenodd">
    <g id="about-modal" transform="translate(-744.000000, -118.000000)" fill="#2BC2DF">
      <g id="logos" transform="translate(467.000000, 96.000000)">
        <g id="color/logo-color-affirm" transform="translate(277.000000, 0.000000)">
          <g id="affirm_blue_logo-solid_bg" transform="translate(0.000000, 22.000000)">
            <path
              d="M46.4278147,1.38195543e-16 C44.9187971,0.00343545028 43.6979589,1.22891365 43.7002479,2.73793345 C43.7025369,4.24695325 44.9270872,5.46872209 46.4361083,5.46757954 C47.9451294,5.466437 49.1678283,4.24281524 49.1678322,2.73379371 C49.1670073,2.00792107 48.8778642,1.31210601 48.3640112,0.799420133 C47.8501581,0.28673426 47.1536873,-0.000825793406 46.4278147,1.38195543e-16 Z"
              id="Shape" fill-rule="nonzero"></path>
            <rect id="Rectangle-path" fill-rule="nonzero" x="44.0798951" y="7.26314685" width="4.66627622"
                  height="18.5639685"></rect>
            <path
              d="M62.7776748,6.78547203 C60.4437587,6.78547203 57.7597552,8.46589161 56.875979,10.5726399 L56.875979,7.26314685 L52.4493182,7.26314685 L52.4493182,25.8286713 L57.1171503,25.8286713 L57.1171503,17.2071853 C57.1171503,13.5584965 58.5175,11.5217657 61.5687063,11.4641958 L64.1733566,6.89283217 C63.711214,6.82443742 63.2448409,6.78856257 62.7776748,6.78547203 Z"
              id="Shape" fill-rule="nonzero"></path>
            <path
              d="M81.5314685,6.79791958 C79.5289685,6.79791958 77.7334091,7.5509965 76.4746503,8.91711538 L76.4093007,8.98713287 L76.345507,8.91711538 C75.1007517,7.5509965 73.314528,6.79791958 71.310472,6.79791958 C67.0191783,6.79791958 63.9041783,9.92692308 63.9041783,14.2368881 L63.9041783,25.8286713 L68.4973252,25.8286713 L68.4973252,14.1373077 C68.4973252,12.3277448 69.6020455,11.1592308 71.310472,11.1592308 C73.0188986,11.1592308 74.1251748,12.3277448 74.1251748,14.1373077 L74.1251748,25.8286713 L78.7307692,25.8286713 L78.7307692,14.1373077 C78.7307692,12.3277448 79.8354895,11.1592308 81.545472,11.1592308 C83.2554545,11.1592308 84.3601748,12.3277448 84.3601748,14.1373077 L84.3601748,25.8286713 L88.9517657,25.8286713 L88.9517657,14.2368881 C88.943986,9.92692308 85.828986,6.79791958 81.5314685,6.79791958 Z"
              id="Shape" fill-rule="nonzero"></path>
            <path
              d="M38.4318182,5.55316434 C38.4318182,4.94012238 38.5142832,4.20727273 39.0386364,3.80428322 C39.6127797,3.35772727 40.4529895,3.44019231 41.1329371,3.47442308 L42.0384965,0.0949125874 L41.5545979,0.0700174825 C39.6065559,-0.0342307692 37.5573776,-0.178933566 35.848951,0.950681818 C34.4003671,1.90758741 33.7562063,3.55533217 33.7562063,5.24664336 L33.7562063,7.26937063 L28.1905944,7.26937063 L28.1905944,5.55783217 C28.1905944,4.9479021 28.2715035,4.22283217 28.784965,3.81517483 C29.3591084,3.35928322 30.2102098,3.44486014 30.8901573,3.47909091 L31.7957168,0.0995804196 L31.3118182,0.0746853147 C29.3482168,-0.0311188811 27.2788112,-0.174265734 25.5688287,0.986468531 C24.1498077,1.94804196 23.5212063,3.58178322 23.5212063,5.25286713 L23.5212063,7.27559441 L21.4175699,7.27559441 L21.4175699,10.6379895 L23.5227622,10.6379895 L23.5227622,25.8286713 L28.1905944,25.8286713 L28.1905944,10.6379895 L33.7546503,10.6379895 L33.7546503,25.8286713 L38.4224825,25.8286713 L38.4224825,10.6379895 L41.6541783,10.6379895 L41.6541783,7.26314685 L38.4318182,7.26314685 L38.4318182,5.55160839 L38.4318182,5.55316434 Z"
              id="Shape" fill-rule="nonzero"></path>
            <path
              d="M19.0494231,25.8286713 L19.0494231,9.43524476 C19.0334309,8.07942426 18.0125723,6.9466177 16.6657168,6.79013986 C15.7741608,6.73256993 14.8265909,7.05931818 14.268007,7.78283217 L0,25.8286713 L3.51643357,25.8286713 C4.91678322,25.8286713 6.03395105,25.0989336 6.87882867,24.0082168 L14.7814685,14.0143881 L14.7814685,25.8286713 L19.052535,25.8286713 L19.0494231,25.8286713 Z"
              id="Shape" fill-rule="nonzero"></path>
          </g>
        </g>
      </g>
    </g>
  </g>
</svg>
