<svg viewBox="0 0 220 72" width="220px" height="72px" xmlns="http://www.w3.org/2000/svg">
  <defs></defs>
  <title>WorldQuant</title>
  <desc>Created with Sketch.</desc>
  <g id="Page-1" stroke="none" stroke-width="1" fill="none" fill-rule="evenodd" transform="matrix(1, 0, 0, 1, -0.4, 23.4)">
    <g id="newlogo" fill-rule="nonzero">
      <g id="Group">
        <g fill="#87746A" id="Shape">
          <path d="M11.1,23.9 L14.7,23.9 L18.9,12.4 L23.1,23.9 L26.7,23.9 L35,1.3 L32.9,1.3 L26.2,19.7 L19.2,1.3 L14.9,1.3 L17.9,9.5 L14.2,19.6 L7.3,1.3 L0.9,1.3 L0.9,2 C3.4,2.4 3.4,2.5 4.1,4.4 L11.1,23.9 Z"></path>
          <path d="M85.6,22.3 C83.3,22.3 83.3,22.3 83.3,19.8 L83.3,1.3 L79,1.3 L79,23.9 L92.4,23.9 L92.4,22.3 L85.6,22.3 Z"></path>
          <path d="M69,13.4 C72.6,13 74.6,11.1 74.6,7.3 C74.6,1.3 67.6,1.3 65.1,1.3 L57.7,1.3 L57.7,23.9 L62.1,23.9 L62.1,2.9 L64.9,2.9 C67.7,2.9 69.8,3.9 69.8,7.5 C69.8,11.6 66.7,12.4 64.6,12.4 L64,12.4 L71.2,23.9 L76,23.9 L69,13.4 Z"></path>
          <path d="M102.7,1.3 L94.9,1.3 L94.9,23.9 L101.6,23.9 C108.2,23.9 113.8,23.2 113.8,12.5 C113.8,3 109.1,1.3 102.7,1.3 Z M101.6,22.3 C99.3,22.3 99.3,21.4 99.3,20.1 L99.3,2.9 L102.1,2.9 C108.4,2.9 109.1,6.7 109.1,12.6 C109.1,19.4 107.8,22.3 101.6,22.3 Z"></path>
          <path d="M44.6,0.5 C36.6,0.5 34.4,5.2 34.4,12.7 C34.4,20.2 36.6,24.7 44.6,24.7 C52.2,24.7 54.6,20.2 54.6,12.7 C54.6,5.2 52.3,0.5 44.6,0.5 Z M44.6,23 C39.6,23 39.2,17.2 39.2,12.6 C39.2,7.9 39.6,2.2 44.6,2.2 C49.5,2.2 49.8,8.1 49.8,12.6 C49.9,17.1 49.6,23 44.6,23 Z"></path>
        </g>
        <g transform="translate(116.000000, 0.000000)" fill="#F8981D" id="Shape">
          <path d="M38.7,1.3 L38.7,16 C38.7,19.4 38.6,23.1 33,23.1 C28.2,23.1 28.2,19.4 28.2,16 L28.2,1.3 L23.8,1.3 L23.8,16.9 C23.8,23 27.1,24.7 33,24.7 C41,24.7 41.1,19.7 41.1,15.2 L41.1,1.3 L38.7,1.3 Z"></path>
          <polygon points="81.8 1.3 81.8 19.6 81.8 19.6 71.2 1.3 66.8 1.3 66.8 23.9 68.9 23.9 68.9 4.8 68.9 4.8 80 23.9 84 23.9 84 1.3"></polygon>
          <path d="M62.5,1.3 L59.9,8.4 L51.6,8.4 L48.9,1.3 L42.5,1.3 L42.5,2 C45,2.4 45,2.5 45.7,4.4 L52.8,23.9 L56.4,23.9 L64.7,1.3 L62.5,1.3 Z M55.8,19.7 L52.2,10 L59.4,10 L55.8,19.7 Z"></path>
          <path d="M10.7,23 C5.7,23 5.3,17.2 5.3,12.6 C5.3,7.9 5.7,2.2 10.7,2.2 C15.6,2.2 15.9,8.1 15.9,12.6 C16,17.1 15.7,23 10.7,23 Z M20.7,12.7 C20.7,5.2 18.4,0.5 10.7,0.5 C2.7,0.5 0.5,5.2 0.5,12.7 C0.5,20.2 2.7,24.7 10.7,24.7 L21.7,24.7 L21.7,24 C19.2,23.6 17.3,23.2 18.4,21.7 C20.1,19.5 20.7,16.5 20.7,12.7 Z"></path>
        </g>
      </g>
      <g id="Group" transform="translate(201.000000, 1.000000)">
        <path d="M16.9,23 C15.8,23 14.9,22.2 14.9,21 C14.9,19.8 15.8,19 16.9,19 C18,19 18.9,19.9 18.9,21 C18.9,22.1 18,23 16.9,23 Z M16.9,19.3 C16,19.3 15.3,20 15.3,21 C15.3,21.9 16,22.6 16.9,22.6 C17.8,22.6 18.5,21.9 18.5,21 C18.5,20 17.8,19.3 16.9,19.3 Z M17,21.2 L16.6,21.2 L16.6,22.2 L16.2,22.2 L16.2,19.9 L17.1,19.9 C17.5,19.9 17.8,20.2 17.8,20.6 C17.8,20.9 17.6,21.1 17.4,21.2 L17.9,22.2 L17.5,22.2 L17,21.2 Z M16.6,20.2 L16.6,20.8 L17.1,20.8 C17.3,20.8 17.5,20.7 17.5,20.5 C17.5,20.3 17.4,20.2 17.1,20.2 L16.6,20.2 Z" id="Shape" fill="#87746A"></path>
        <path d="M16.9,23 C15.8,23 14.9,22.2 14.9,21 C14.9,19.8 15.8,19 16.9,19 C18,19 18.9,19.9 18.9,21 C18.9,22.1 18,23 16.9,23 Z M16.9,19.3 C16,19.3 15.3,20 15.3,21 C15.3,21.9 16,22.6 16.9,22.6 C17.8,22.6 18.5,21.9 18.5,21 C18.5,20 17.8,19.3 16.9,19.3 Z M17,21.2 L16.6,21.2 L16.6,22.2 L16.2,22.2 L16.2,19.9 L17.1,19.9 C17.5,19.9 17.8,20.2 17.8,20.6 C17.8,20.9 17.6,21.1 17.4,21.2 L17.9,22.2 L17.5,22.2 L17,21.2 Z M16.6,20.2 L16.6,20.8 L17.1,20.8 C17.3,20.8 17.5,20.7 17.5,20.5 C17.5,20.3 17.4,20.2 17.1,20.2 L16.6,20.2 Z" id="Shape" fill="#87746A"></path>
        <polygon id="Shape" fill="#F8981D" points="18.9 1.9 18.9 0.3 0.7 0.3 0.7 1.9 7.6 1.9 7.6 22.9 12 22.9 12 1.9"></polygon>
        <path d="M16.9,23 C15.8,23 14.9,22.2 14.9,21 C14.9,19.8 15.8,19 16.9,19 C18,19 18.9,19.9 18.9,21 C18.9,22.1 18,23 16.9,23 Z M16.9,19.3 C16,19.3 15.3,20 15.3,21 C15.3,21.9 16,22.6 16.9,22.6 C17.8,22.6 18.5,21.9 18.5,21 C18.5,20 17.8,19.3 16.9,19.3 Z M17,21.2 L16.6,21.2 L16.6,22.2 L16.2,22.2 L16.2,19.9 L17.1,19.9 C17.5,19.9 17.8,20.2 17.8,20.6 C17.8,20.9 17.6,21.1 17.4,21.2 L17.9,22.2 L17.5,22.2 L17,21.2 Z M16.6,20.2 L16.6,20.8 L17.1,20.8 C17.3,20.8 17.5,20.7 17.5,20.5 C17.5,20.3 17.4,20.2 17.1,20.2 L16.6,20.2 Z" id="Shape" fill="#87746A"></path>
      </g>
    </g>
  </g>
</svg>